<svg xmlns="http://www.w3.org/2000/svg" xmlns:xlink="http://www.w3.org/1999/xlink" width="1080" zoomAndPan="magnify" viewBox="0 0 810 809.999993" height="1080" preserveAspectRatio="xMidYMid meet" version="1.0"><defs><clipPath id="9734af5091"><path d="M 357.351562 146.707031 L 452.648438 146.707031 L 452.648438 242.003906 L 357.351562 242.003906 Z M 357.351562 146.707031 " clip-rule="nonzero"/></clipPath><clipPath id="7d025a937a"><path d="M 405 146.707031 C 378.683594 146.707031 357.351562 168.039062 357.351562 194.355469 C 357.351562 220.667969 378.683594 242.003906 405 242.003906 C 431.316406 242.003906 452.648438 220.667969 452.648438 194.355469 C 452.648438 168.039062 431.316406 146.707031 405 146.707031 Z M 405 146.707031 " clip-rule="nonzero"/></clipPath><clipPath id="7fd47c0a78"><path d="M 174.375 138.964844 L 635.625 138.964844 L 635.625 620.464844 L 174.375 620.464844 Z M 174.375 138.964844 " clip-rule="nonzero"/></clipPath><clipPath id="71b369fdaf"><path d="M 47.78125 47.78125 L 762.53125 47.78125 L 762.53125 762.53125 L 47.78125 762.53125 Z M 47.78125 47.78125 " clip-rule="nonzero"/></clipPath></defs><rect x="-81" width="972" fill="#ffffff" y="-80.999999" height="971.999992" fill-opacity="1"/><rect x="-81" width="972" fill="#ffffff" y="-80.999999" height="971.999992" fill-opacity="1"/><g clip-path="url(#9734af5091)"><g clip-path="url(#7d025a937a)"><path fill="#566c97" d="M 357.351562 146.707031 L 452.648438 146.707031 L 452.648438 242.003906 L 357.351562 242.003906 Z M 357.351562 146.707031 " fill-opacity="1" fill-rule="nonzero"/></g></g><g clip-path="url(#7fd47c0a78)"><path fill="#000000" d="M 635.054688 355.019531 C 635.054688 361.257812 629.992188 366.316406 623.753906 366.316406 C 617.511719 366.316406 612.449219 361.257812 612.449219 355.019531 C 612.449219 343.925781 607.90625 333.847656 600.582031 326.527344 C 593.257812 319.207031 583.175781 314.664062 572.078125 314.664062 L 237.742188 314.664062 C 226.640625 314.664062 216.558594 319.207031 209.234375 326.527344 C 201.910156 333.847656 197.367188 343.925781 197.367188 355.019531 L 197.367188 557.605469 C 197.367188 568.703125 201.910156 578.777344 209.234375 586.097656 C 216.558594 593.421875 226.640625 597.960938 237.742188 597.960938 L 572.078125 597.960938 C 583.175781 597.960938 593.257812 593.421875 600.582031 586.097656 C 607.90625 578.777344 612.449219 568.679688 612.449219 557.605469 L 612.449219 440 C 612.449219 433.765625 617.511719 428.703125 623.753906 428.703125 C 629.992188 428.703125 635.054688 433.765625 635.054688 440 L 635.054688 557.605469 C 635.054688 574.9375 627.980469 590.664062 616.5625 602.074219 C 605.171875 613.460938 589.414062 620.558594 572.078125 620.558594 L 237.742188 620.558594 C 220.402344 620.558594 204.671875 613.484375 193.253906 602.074219 C 181.839844 590.664062 174.761719 574.9375 174.761719 557.605469 L 174.761719 355.019531 C 174.761719 337.691406 181.839844 321.964844 193.253906 310.574219 C 204.648438 299.164062 220.402344 292.09375 237.742188 292.09375 L 393.605469 292.09375 L 393.605469 250.316406 C 382.597656 248.078125 372.765625 242.609375 365.125 234.972656 C 354.949219 224.804688 348.644531 210.75 348.644531 195.207031 C 348.644531 179.683594 354.929688 165.628906 365.125 155.460938 C 375.296875 145.292969 389.378906 138.988281 404.910156 138.988281 C 420.4375 138.988281 434.5 145.292969 444.695312 155.460938 C 454.867188 165.628906 461.175781 179.683594 461.175781 195.207031 C 461.175781 210.726562 454.867188 224.78125 444.695312 234.972656 C 437.03125 242.609375 427.199219 248.078125 416.210938 250.316406 L 416.210938 292.09375 L 572.078125 292.09375 C 589.414062 292.09375 605.148438 299.164062 616.5625 310.574219 C 627.980469 321.964844 635.054688 337.710938 635.054688 355.019531 Z M 404.910156 161.539062 C 395.617188 161.539062 387.1875 165.3125 381.105469 171.390625 C 375.003906 177.46875 371.226562 185.898438 371.226562 195.183594 C 371.226562 204.46875 375.003906 212.898438 381.105469 219 C 387.1875 225.078125 395.617188 228.851562 404.910156 228.851562 C 414.199219 228.851562 422.632812 225.078125 428.734375 219 C 434.816406 212.898438 438.589844 204.492188 438.589844 195.183594 C 438.589844 185.898438 434.816406 177.46875 428.734375 171.390625 C 422.632812 165.289062 414.222656 161.539062 404.910156 161.539062 Z M 308.65625 549.949219 C 302.414062 549.949219 297.375 544.886719 297.375 538.648438 C 297.375 532.414062 302.4375 527.351562 308.65625 527.351562 L 501.164062 527.351562 C 507.402344 527.351562 512.445312 532.414062 512.445312 538.648438 C 512.445312 544.886719 507.378906 549.949219 501.164062 549.949219 Z M 508.195312 388.933594 C 498.902344 388.933594 490.472656 392.707031 484.390625 398.785156 C 478.285156 404.886719 474.535156 413.292969 474.535156 422.601562 C 474.535156 431.886719 478.308594 440.316406 484.390625 446.394531 C 490.472656 452.496094 498.902344 456.246094 508.195312 456.246094 C 517.484375 456.246094 525.917969 452.472656 532.019531 446.394531 C 538.101562 440.316406 541.875 431.886719 541.875 422.601562 C 541.875 413.316406 538.101562 404.886719 532.019531 398.785156 C 525.9375 392.707031 517.507812 388.933594 508.195312 388.933594 Z M 468.429688 382.835938 C 478.601562 372.667969 492.664062 366.363281 508.195312 366.363281 C 523.722656 366.363281 537.785156 372.644531 547.980469 382.835938 C 558.152344 393.003906 564.457031 407.078125 564.457031 422.601562 C 564.457031 438.125 558.152344 452.179688 547.980469 462.347656 C 537.808594 472.515625 523.746094 478.820312 508.195312 478.820312 C 492.664062 478.820312 478.601562 472.515625 468.429688 462.347656 C 458.257812 452.179688 451.949219 438.125 451.949219 422.601562 C 451.949219 407.078125 458.257812 393.023438 468.429688 382.835938 Z M 301.625 366.363281 C 317.15625 366.363281 331.214844 372.644531 341.386719 382.835938 C 351.558594 393.003906 357.867188 407.078125 357.867188 422.601562 C 357.867188 438.125 351.558594 452.179688 341.386719 462.347656 C 331.214844 472.515625 317.15625 478.820312 301.625 478.820312 C 286.09375 478.820312 272.035156 472.515625 261.839844 462.347656 C 251.667969 452.179688 245.359375 438.125 245.359375 422.601562 C 245.359375 407.078125 251.667969 393.023438 261.839844 382.835938 C 272.011719 372.667969 286.070312 366.363281 301.625 366.363281 Z M 325.429688 398.785156 C 319.347656 392.707031 310.914062 388.933594 301.625 388.933594 C 292.332031 388.933594 283.902344 392.707031 277.796875 398.785156 C 271.71875 404.886719 267.941406 413.292969 267.941406 422.601562 C 267.941406 431.886719 271.71875 440.316406 277.796875 446.394531 C 283.902344 452.496094 292.3125 456.246094 301.625 456.246094 C 310.914062 456.246094 319.347656 452.472656 325.429688 446.394531 C 331.53125 440.316406 335.285156 431.886719 335.285156 422.601562 C 335.285156 413.316406 331.507812 404.886719 325.429688 398.785156 Z M 325.429688 398.785156 " fill-opacity="1" fill-rule="nonzero"/></g><path fill="#566c97" d="M 196.988281 168.472656 C 191.933594 172.917969 187.019531 177.519531 182.269531 182.269531 C 177.519531 187.019531 172.917969 191.933594 168.472656 196.988281 L 613.007812 641.523438 C 618.0625 637.078125 622.976562 632.476562 627.726562 627.726562 C 632.476562 622.976562 637.078125 618.0625 641.523438 613.007812 L 196.988281 168.472656 " fill-opacity="1" fill-rule="nonzero"/><g clip-path="url(#71b369fdaf)"><path fill="#566c97" d="M 666.210938 581.082031 C 654.9375 597.769531 641.988281 613.460938 627.726562 627.726562 C 613.457031 641.992188 597.765625 654.941406 581.078125 666.214844 C 564.242188 677.589844 546.246094 687.359375 527.59375 695.25 C 488.785156 711.660156 447.539062 719.984375 404.996094 719.984375 C 362.453125 719.984375 321.210938 711.660156 282.402344 695.25 C 263.746094 687.359375 245.753906 677.589844 228.914062 666.214844 C 212.226562 654.941406 196.535156 641.992188 182.269531 627.726562 C 168.003906 613.460938 155.054688 597.769531 143.78125 581.082031 C 132.40625 564.242188 122.640625 546.25 114.75 527.59375 C 98.335938 488.785156 90.011719 447.542969 90.011719 405 C 90.011719 362.457031 98.335938 321.210938 114.75 282.410156 C 122.640625 263.75 132.40625 245.753906 143.78125 228.917969 C 155.054688 212.230469 168.003906 196.539062 182.269531 182.269531 C 196.535156 168.007812 212.226562 155.058594 228.914062 143.785156 C 245.753906 132.410156 263.746094 122.640625 282.402344 114.75 C 321.210938 98.335938 362.453125 90.015625 404.996094 90.015625 C 447.539062 90.015625 488.785156 98.335938 527.59375 114.75 C 546.246094 122.640625 564.242188 132.410156 581.078125 143.785156 C 597.765625 155.058594 613.457031 168.007812 627.726562 182.269531 C 641.988281 196.539062 654.9375 212.230469 666.210938 228.917969 C 677.585938 245.753906 687.355469 263.75 695.246094 282.410156 C 711.660156 321.210938 719.980469 362.457031 719.980469 405 C 719.980469 447.542969 711.660156 488.785156 695.246094 527.59375 C 687.355469 546.25 677.585938 564.242188 666.210938 581.082031 Z M 404.996094 47.78125 C 207.710938 47.78125 47.78125 207.710938 47.78125 405 C 47.78125 602.285156 207.710938 762.214844 404.996094 762.214844 C 602.285156 762.214844 762.214844 602.285156 762.214844 405 C 762.214844 207.710938 602.285156 47.78125 404.996094 47.78125 " fill-opacity="1" fill-rule="nonzero"/></g></svg>